# xmcd
#
# Track frame offsets:
#	150
#	12147
#	24267
#	35760
#	47727
#	58407
#	71612
#	84867
#	101165
#	118710
#	129280
#	142577
#	156005
#	168825
#	180595
#
# Disc length: 2577 seconds
#
# Revision: 1
# Processed by: cddbd v1.5.2PL0 Copyright (c) Steve Scherf et al.
# Submitted via: audiograbber 1.83.01
#
DISCID=b90a0f0f
DTITLE=Sam and Dave - Soul Men
DYEAR=1995
DGENRE=Soul
TTITLE0=Hold On I'm Coming
TTITLE1=I Thank You
TTITLE2=Soul Man
TTITLE3=Funky Street
TTITLE4=Sweet Soul Music
TTITLE5=Funky Broadway
TTITLE6=6345789
TTITLE7=Love The One You're With
TTITLE8=Mustang Sally
TTITLE9=Soul Sister Brown Sugar
TTITLE10=How Sweet It Is (To Be Loved By You)
TTITLE11=Good Lovin'
TTITLE12=I'll Be Doggone
TTITLE13=Respect
TTITLE14=(I Can't Get No) Satisfaction
EXTD=
EXTT0=
EXTT1=
EXTT2=
EXTT3=
EXTT4=
EXTT5=
EXTT6=
EXTT7=
EXTT8=
EXTT9=
EXTT10=
EXTT11=
EXTT12=
EXTT13=
EXTT14=
PLAYORDER=
